<?xml version="1.0" encoding="UTF-8" standalone="no"?>
<!-- Created with Inkscape (http://www.inkscape.org/) -->

<svg
   xmlns:dc="http://purl.org/dc/elements/1.1/"
   xmlns:cc="http://creativecommons.org/ns#"
   xmlns:rdf="http://www.w3.org/1999/02/22-rdf-syntax-ns#"
   xmlns:svg="http://www.w3.org/2000/svg"
   xmlns="http://www.w3.org/2000/svg"
   xmlns:xlink="http://www.w3.org/1999/xlink"
   xmlns:sodipodi="http://sodipodi.sourceforge.net/DTD/sodipodi-0.dtd"
   xmlns:inkscape="http://www.inkscape.org/namespaces/inkscape"
   width="128px"
   height="128px"
   viewBox="0 0 128 128"
   version="1.1"
   id="SVGRoot"
   inkscape:version="0.92.5 (2060ec1f9f, 2020-04-08)"
   sodipodi:docname="Query.svg"
   inkscape:export-filename="C:\Users\Drew\Documents\0GitHub\Office App Launcher Icons\applauncher-icons\SVG\Complicated\Query.png"
   inkscape:export-xdpi="48.000004"
   inkscape:export-ydpi="48.000004">
  <defs
     id="defs815">
    <radialGradient
       inkscape:collect="always"
       gradientTransform="matrix(2.0916,0.39594,-1.3654,7.213,627.09,-3497.4)"
       r="28.734"
       cy="556.38"
       cx="126.49"
       gradientUnits="userSpaceOnUse"
       id="radialGradient5910">
      <stop
         offset="0"
         style="stop-color:#00242a;stop-opacity:1"
         id="stop5920" />
      <stop
         offset="1"
         style="stop-color:#74878a"
         id="stop5924" />
    </radialGradient>
    <radialGradient
       id="radialGradient5910-3"
       gradientUnits="userSpaceOnUse"
       cx="126.49"
       cy="556.38"
       r="28.734"
       gradientTransform="matrix(2.0916,0.39594,-1.3654,7.213,627.09,-3497.4)"
       inkscape:collect="always">
      <stop
         id="stop5904"
         style="stop-color:#ffffff"
         offset="0" />
      <stop
         id="stop5906"
         style="stop-color:#f0f3f4"
         offset="0.2462817" />
      <stop
         id="stop5908"
         style="stop-color:#74878a"
         offset="1" />
    </radialGradient>
    <inkscape:path-effect
       effect="bend_path"
       id="path-effect5535"
       is_visible="true"
       bendpath="m 252.456,323.56565 c 32.90189,-3.01909 55.29824,21.7091 64.72649,21.1663 48.08216,-3.26368 44.09727,-0.46607 53.55331,46.49154 9.41236,43.07851 -7.65873,122.16782 -54.62102,120.48112"
       prop_scale="1"
       scale_y_rel="false"
       vertical="true"
       bendpath-nodetypes="cccc" />
    <inkscape:path-effect
       effect="bend_path"
       id="path-effect5465"
       is_visible="true"
       bendpath="m 339.45741,299.28856 c 6.82441,-23.89144 5.15049,-36.468 16.68754,-47.97182 14.81436,-13.17572 42.00086,-18.80594 61.0384,-10.77818 8.0775,3.40613 12.36808,13.31536 14.80397,21.73642 0.85854,2.96805 -0.32208,9.26358 -0.32208,9.26358"
       prop_scale="1"
       scale_y_rel="false"
       vertical="true"
       bendpath-nodetypes="ccasc" />
    <inkscape:path-effect
       effect="bend_path"
       id="path-effect5331"
       is_visible="true"
       bendpath="m 249.456,329.56565 h 84.976"
       prop_scale="1.054888"
       scale_y_rel="false"
       vertical="false" />
    <inkscape:path-effect
       effect="bend_path"
       id="path-effect1626"
       is_visible="true"
       bendpath="m 16,34 h 94.5"
       prop_scale="1"
       scale_y_rel="false"
       vertical="false" />
    <linearGradient
       inkscape:collect="always"
       id="linearGradient4045">
      <stop
         offset="0"
         style="stop-color:#0f2543"
         id="stop4047" />
      <stop
         offset=".52692"
         style="stop-color:#3465a4"
         id="stop4049" />
      <stop
         offset="1"
         style="stop-color:#729fcf"
         id="stop4051" />
    </linearGradient>
    <filter
       color-interpolation-filters="sRGB"
       inkscape:collect="always"
       id="filter4146">
      <feGaussianBlur
         inkscape:collect="always"
         stdDeviation="4.2422908"
         id="feGaussianBlur4148" />
    </filter>
    <linearGradient
       inkscape:collect="always"
       x1="340.45"
       y1="71.25"
       gradientTransform="translate(-101,764.01)"
       x2="352.33"
       gradientUnits="userSpaceOnUse"
       xlink:href="#linearGradient4045"
       y2="59.571"
       id="linearGradient4179" />
    <linearGradient
       inkscape:collect="always"
       x1="340.45"
       y1="71.25"
       gradientTransform="translate(-87,764.01)"
       x2="352.33"
       gradientUnits="userSpaceOnUse"
       xlink:href="#linearGradient4045"
       y2="59.571"
       id="linearGradient4182" />
    <linearGradient
       inkscape:collect="always"
       x1="340.45"
       y1="71.25"
       gradientTransform="translate(-73,764.01)"
       x2="352.33"
       gradientUnits="userSpaceOnUse"
       y2="59.571"
       id="linearGradient4185">
      <stop
         offset="0"
         style="stop-color:#a40000"
         id="stop4039" />
      <stop
         offset=".52692"
         style="stop-color:#cc0000"
         id="stop4041" />
      <stop
         offset="1"
         style="stop-color:#f57a7a"
         id="stop4043" />
    </linearGradient>
    <linearGradient
       inkscape:collect="always"
       x1="152.56"
       y1="75.317"
       gradientTransform="translate(-73,764)"
       x2="152.56"
       gradientUnits="userSpaceOnUse"
       y2="55.859"
       id="linearGradient4188">
      <stop
         offset="0"
         style="stop-color:#204a87"
         id="stop3181" />
      <stop
         offset=".52692"
         style="stop-color:#3465a4"
         id="stop3187" />
      <stop
         offset="1"
         style="stop-color:#729fcf"
         id="stop3183" />
    </linearGradient>
    <linearGradient
       inkscape:collect="always"
       x1="436"
       y1="342.44"
       gradientTransform="translate(-73,764)"
       x2="208.25"
       gradientUnits="userSpaceOnUse"
       spreadMethod="reflect"
       xlink:href="#linearGradient4045"
       y2="159.94"
       id="linearGradient4191" />
    <linearGradient
       inkscape:collect="always"
       x1="436"
       y1="342.44"
       gradientTransform="translate(-71.828,766.59)"
       x2="208.25"
       gradientUnits="userSpaceOnUse"
       spreadMethod="reflect"
       y2="159.94"
       id="linearGradient4194">
      <stop
         offset="0"
         style="stop-color:#2e3436"
         id="stop4140" />
      <stop
         offset=".52692"
         style="stop-color:#888a85"
         id="stop4142" />
      <stop
         offset="1"
         style="stop-color:#d3d7cf"
         id="stop4144" />
    </linearGradient>
    <linearGradient
       inkscape:collect="always"
       xlink:href="#linearGradient4194"
       id="linearGradient1486"
       gradientUnits="userSpaceOnUse"
       gradientTransform="translate(-71.828,766.59)"
       x1="436"
       y1="342.44"
       x2="208.25"
       y2="159.94"
       spreadMethod="reflect" />
    <linearGradient
       inkscape:collect="always"
       xlink:href="#linearGradient4045"
       id="linearGradient1488"
       gradientUnits="userSpaceOnUse"
       gradientTransform="translate(-73,764)"
       x1="436"
       y1="342.44"
       x2="208.25"
       y2="159.94"
       spreadMethod="reflect" />
    <linearGradient
       inkscape:collect="always"
       xlink:href="#linearGradient4188"
       id="linearGradient1490"
       gradientUnits="userSpaceOnUse"
       gradientTransform="translate(-73,764)"
       x1="152.56"
       y1="75.317"
       x2="152.56"
       y2="55.859" />
    <linearGradient
       inkscape:collect="always"
       xlink:href="#linearGradient4185"
       id="linearGradient1492"
       gradientUnits="userSpaceOnUse"
       gradientTransform="translate(-73,764.01)"
       x1="340.45"
       y1="71.25"
       x2="352.33"
       y2="59.571" />
    <linearGradient
       inkscape:collect="always"
       xlink:href="#linearGradient4045"
       id="linearGradient1494"
       gradientUnits="userSpaceOnUse"
       gradientTransform="translate(-87,764.01)"
       x1="340.45"
       y1="71.25"
       x2="352.33"
       y2="59.571" />
    <linearGradient
       inkscape:collect="always"
       xlink:href="#linearGradient4045"
       id="linearGradient1496"
       gradientUnits="userSpaceOnUse"
       gradientTransform="translate(-101,764.01)"
       x1="340.45"
       y1="71.25"
       x2="352.33"
       y2="59.571" />
    <linearGradient
       inkscape:collect="always"
       xlink:href="#linearGradient4194"
       id="linearGradient1498"
       gradientUnits="userSpaceOnUse"
       gradientTransform="translate(-71.828,766.59)"
       x1="436"
       y1="342.44"
       x2="208.25"
       y2="159.94"
       spreadMethod="reflect" />
    <linearGradient
       inkscape:collect="always"
       xlink:href="#linearGradient4188"
       id="linearGradient1500"
       gradientUnits="userSpaceOnUse"
       gradientTransform="translate(-73,764)"
       x1="152.56"
       y1="75.317"
       x2="152.56"
       y2="55.859" />
    <linearGradient
       inkscape:collect="always"
       xlink:href="#linearGradient4185"
       id="linearGradient1502"
       gradientUnits="userSpaceOnUse"
       gradientTransform="translate(-73,764.01)"
       x1="340.45"
       y1="71.25"
       x2="352.33"
       y2="59.571" />
    <linearGradient
       inkscape:collect="always"
       xlink:href="#linearGradient4194"
       id="linearGradient1538"
       gradientUnits="userSpaceOnUse"
       gradientTransform="translate(-71.828,766.59)"
       x1="436"
       y1="342.44"
       x2="208.25"
       y2="159.94"
       spreadMethod="reflect" />
    <linearGradient
       inkscape:collect="always"
       xlink:href="#linearGradient4045"
       id="linearGradient1540"
       gradientUnits="userSpaceOnUse"
       gradientTransform="translate(-73,764)"
       x1="436"
       y1="342.44"
       x2="208.25"
       y2="159.94"
       spreadMethod="reflect" />
    <linearGradient
       inkscape:collect="always"
       xlink:href="#linearGradient4188"
       id="linearGradient1542"
       gradientUnits="userSpaceOnUse"
       gradientTransform="translate(-73,764)"
       x1="152.56"
       y1="75.317"
       x2="152.56"
       y2="55.859" />
    <linearGradient
       inkscape:collect="always"
       xlink:href="#linearGradient4185"
       id="linearGradient1544"
       gradientUnits="userSpaceOnUse"
       gradientTransform="translate(-73,764.01)"
       x1="340.45"
       y1="71.25"
       x2="352.33"
       y2="59.571" />
    <linearGradient
       inkscape:collect="always"
       xlink:href="#linearGradient4045"
       id="linearGradient1546"
       gradientUnits="userSpaceOnUse"
       gradientTransform="translate(-87,764.01)"
       x1="340.45"
       y1="71.25"
       x2="352.33"
       y2="59.571" />
    <linearGradient
       inkscape:collect="always"
       xlink:href="#linearGradient4045"
       id="linearGradient1548"
       gradientUnits="userSpaceOnUse"
       gradientTransform="translate(-101,764.01)"
       x1="340.45"
       y1="71.25"
       x2="352.33"
       y2="59.571" />
    <linearGradient
       inkscape:collect="always"
       x1="141.6"
       y1="460.75"
       x2="82.38"
       gradientUnits="userSpaceOnUse"
       y2="471.73"
       id="linearGradient5828">
      <stop
         offset="0"
         style="stop-color:#ffffff"
         id="stop3184" />
      <stop
         offset="1"
         style="stop-color:#ffffff;stop-opacity:0"
         id="stop3186" />
    </linearGradient>
    <radialGradient
       inkscape:collect="always"
       gradientTransform="matrix(2.0916,0.39594,-1.3654,7.213,627.09,-3497.4)"
       r="28.734"
       cy="556.38"
       cx="126.49"
       gradientUnits="userSpaceOnUse"
       id="radialGradient4034">
      <stop
         offset="0"
         style="stop-color:#ffffff"
         id="stop3197" />
      <stop
         offset="0.417"
         style="stop-color:#f0f3f4"
         id="stop3274" />
      <stop
         offset="1"
         style="stop-color:#74878a"
         id="stop3199" />
    </radialGradient>
    <clipPath
       clipPathUnits="userSpaceOnUse"
       id="clipPath5435">
      <g
         id="use5437"
         inkscape:label="Clip">
        <g
           transform="matrix(0.27899435,0,0,0.27899435,402.59731,83.81664)"
           id="g5935">
          <path
             inkscape:original-d="M 130.89,670.98 V 467.76 l 18.102,0.1213 -21.025,-43.535 -21.024,-43.535 -21.457,43.231 -21.47,43.252 18.94,0.1416 v 203.54 z"
             inkscape:connector-curvature="0"
             style="fill:#67848f;fill-opacity:0.44706002;fill-rule:evenodd;stroke:#a3b0b5;stroke-width:5.17640018"
             sodipodi:nodetypes="cccccccccc"
             d="m 80.287278,667.97983 c 0.01568,-0.0896 0.03182,-0.18288 0.04848,-0.27972 0.125791,-0.73141 0.247029,-1.48802 0.366373,-2.26924 0.388287,-2.55428 0.709171,-5.08217 0.94861,-7.58075 0,0 10e-7,-10e-6 10e-7,-10e-6 0.127344,-6.8794 1.081398,-10.9177 0.266284,-11.4254 -3e-6,10e-6 -3e-6,0 -3e-6,0 C 77.549406,631.73576 72.58753,618.0232 65.515119,606.55144 l -9e-6,-10e-6 C 58.524726,596.02847 51.082962,586.90121 42.805625,584.20864 12.693788,571.06088 -23.429551,570.40326 -58.32675,576.52982 h -1.6e-5 c -34.270125,6.54256 -67.246084,19.63958 -91.460084,41.5862 -3.95275,3.95937 -7.57153,8.21948 -10.76256,12.72128 4.88641,3.51006 9.76564,7.03005 14.63769,10.55993 -3.59391,2.27709 -7.04336,4.90799 -10.24586,7.90219 0,0 0,0 -1e-5,0 -7.18441,6.58333 -13.59814,16.14127 -19.8479,27.02305 0,0 0,1e-5 0,1e-5 -3.79088,6.85548 -7.47236,13.91991 -11.11107,21.11019 -12.57981,24.85904 -24.64853,51.22232 -38.9604,75.65576 0.6486,-28.16025 -1.56567,-55.60124 -2.67896,-84.12751 -0.33235,-8.50969 -0.56673,-17.11597 -0.5979,-25.86673 0,0 0,-10e-6 0,-10e-6 -0.0264,-14.60282 1.27459,-30.30226 5.67049,-47.28196 1e-5,0 1e-5,0 1e-5,-10e-6 2.27248,-7.93992 5.16863,-15.77773 8.65939,-23.43155 5.17622,3.58354 10.34377,7.17933 15.50263,10.78734 5.06438,-7.14493 10.7264,-13.81049 16.88388,-19.93235 33.19467,-29.12611 74.19927,-46.30497 115.546019,-53.83172 41.68993,-8.10491 86.943049,-6.46124 128.521717,10.63697 20.812118,9.54648 35.726193,25.14167 45.126414,41.74657 l 1e-5,2e-5 c 9.96244,16.75175 16.59254,34.27917 21.40658,51.31782 2.97173,12.5044 2.57349,22.51244 1.40117,29.33465 0,10e-6 0,2e-5 -1e-5,2e-5 -0.33292,3.45169 -0.76291,6.85783 -1.27592,10.2155 -0.15687,1.03041 -0.32599,2.08246 -0.51001,3.15555 -0.0238,0.13892 -0.0484,0.28111 -0.0739,0.42656 -15.73934,-2.75134 -31.478463,-5.50392 -47.217362,-8.25776 z"
             id="path5927" />
          <path
             inkscape:original-d="m 67.469,465.47 17.469,0.008 v 203.49 h 43.938 l 0.1875,-203.28 16.594,-0.0625 -38.75,-80.312 z"
             inkscape:connector-curvature="0"
             style="fill:none;stroke:#edf3f3;stroke-width:2.5"
             sodipodi:nodetypes="cccccccc"
             d="m -214.86081,598.22453 c 4.81543,3.2453 9.63043,6.49124 14.44497,9.73784 5.59946,-8.42444 12.03292,-16.22028 19.13674,-23.28447 32.82333,-28.82924 73.49595,-45.83932 114.550084,-53.32538 l 2.1e-5,-10e-6 c 41.40906,-8.0231 86.284676,-6.4202 127.389207,10.51466 20.293824,9.26308 34.89893,24.59083 44.199508,40.94425 l 1e-5,2e-5 c 9.84294,16.53343 16.40406,33.90311 21.19965,50.8446 2.88255,12.00836 2.46133,21.76956 1.33221,28.59414 -0.30418,3.15434 -0.69075,6.2724 -1.14864,9.35188 l -43.461756,-6.45415 c 0.352856,-2.38934 0.646636,-4.75856 0.870251,-7.10534 0.167816,-6.87734 1.095,-11.16628 0.186677,-12.17356 -4.393999,-14.78474 -9.433008,-28.65303 -16.631448,-40.33823 -7.09636,-10.76962 -14.851582,-20.1565 -23.642476,-23.12107 -30.586277,-13.2911 -67.075197,-13.96662 -102.237477,-7.74311 -34.546477,6.59997 -67.828101,19.87571 -92.373701,42.11142 -4.77453,4.78627 -9.07206,10.00586 -12.7366,15.56025 4.54182,3.13115 9.08696,6.25748 13.63543,9.37899 -2.79266,1.97444 -5.48119,4.1684 -8.01759,6.58628 -7.27993,6.80402 -13.74627,16.51456 -20.00627,27.48173 -15.56222,28.22421 -29.25349,59.82975 -45.66744,89.09418 0.22041,-33.59372 -3.08078,-66.31638 -3.16296,-101.20221 0,0 0,0 0,0 -0.0113,-14.50367 1.25829,-30.02791 5.57115,-46.74819 1.7919,-6.31197 3.98721,-12.56115 6.57045,-18.70452 z"
             id="path5929" />
          <path
             inkscape:original-d="m 127.64,667.78 0.20586,-203.36 15.791,-0.0617 -36.742,-76.204 -37.415,76.076 16.722,0.004 -0.02287,203.47 z"
             d="m 84.27977,663.38316 c 0.235639,-1.7512 0.43801,-3.49223 0.602799,-5.22217 0.194453,-6.87588 1.106948,-11.3189 0.142708,-12.63538 -4.406264,-14.84509 -9.489017,-28.81141 -16.762499,-40.63207 -3e-6,0 -6e-6,0 -9e-6,-10e-6 C 61.103752,593.9678 53.155717,584.41517 44.042576,581.27525 13.161049,567.8844 -23.561758,567.18573 -58.897381,573.46164 c -34.727083,6.62694 -68.212839,20.00874 -92.985779,42.42854 -5.29804,5.31014 -10.01764,11.14953 -13.95367,17.38855 4.38519,2.88715 8.77345,5.76969 13.16477,8.64761 -2.3409,1.75957 -4.60172,3.67607 -6.75418,5.7521 -7.33953,6.94271 -13.83848,16.7491 -20.10451,27.76991 -10e-6,0 -10e-6,0 -10e-6,0 -14.71713,26.74147 -27.74557,56.42903 -42.96222,84.23646 -0.11666,-31.7376 -3.06426,-62.77526 -3.15521,-95.67177 0,-1e-5 0,-1e-5 0,-1e-5 -0.0182,-14.45042 1.21801,-29.87946 5.47077,-46.46217 1.47783,-5.24736 3.23817,-10.45256 5.2719,-15.59022 4.67321,3.01143 9.3462,6.02317 14.01899,9.03523 5.88808,-9.24017 12.78334,-17.75145 20.47246,-25.39949 32.58528,-28.64186 73.04621,-45.54716 113.914599,-53.0097 4e-6,0 7e-6,0 1e-5,0 41.230743,-7.97358 85.867825,-6.39907 126.674623,10.43076 19.967744,9.08372 34.379356,24.24256 43.618128,40.43745 0,10e-6 1e-5,2e-5 1e-5,2e-5 9.76869,16.39573 16.28748,33.6661 21.07244,50.54641 2.82705,11.69725 2.39186,21.3039 1.29022,28.12999 -0.21514,2.23241 -0.47197,4.44723 -0.76648,6.64362 -13.70478,-1.78551 -27.408026,-3.58278 -41.10971,-5.39177 z"
             inkscape:connector-curvature="0"
             style="fill:url(#linearGradient5939);fill-rule:evenodd"
             sodipodi:nodetypes="cccccccc"
             id="path5931" />
          <path
             inkscape:original-d="m 132.97,442.28 c -1.7184,2.0273 -3.4269,4.0645 -5.0938,6.2812 -2.2845,3.0382 -4.5144,6.2505 -6.6875,9.625 -2.1731,3.3745 -4.2991,6.9054 -6.3438,10.594 -2.0447,3.6884 -4.0069,7.5203 -5.9062,11.5 -1.8994,3.9797 -3.7316,8.0952 -5.4688,12.344 -1.7372,4.2485 -3.3795,8.6302 -4.9375,13.125 -1.558,4.4948 -3.0443,9.1251 -4.4062,13.844 -1.362,4.7187 -2.601,9.5488 -3.75,14.469 -1.149,4.92 -2.2059,9.9324 -3.125,15.031 -0.42828,2.376 -0.72627,4.7039 -1.0938,7.0625 v 83.719 c 0.38014,2.0784 0.71614,4.2076 1.1562,6.2188 0.85805,3.9209 1.8263,7.7304 2.9062,11.375 1.0606,3.5795 2.233,6.994 3.5,10.281 l 33.875,0.0312 0.25,-203.38 15.781,-0.0625 -10.656,-22.062 z"
             inkscape:connector-curvature="0"
             style="opacity:0.64573999;fill:url(#radialGradient5941)"
             d="m -174.67736,667.23518 c -0.71287,-3.71501 -1.3624,-7.5264 -1.72618,-11.51122 -0.48021,-5.26157 -0.58362,-10.80349 -0.0555,-16.49236 0,0 0,0 0,0 0.0178,-0.23689 0.0369,-0.47438 0.0573,-0.71246 0.50506,-5.89979 1.79355,-12.15517 3.99719,-18.59054 1.95437,-5.7077 4.61506,-11.53031 8.01387,-17.31874 0,0 0,0 0,0 0.4655,-0.70244 0.94069,-1.40382 1.42556,-2.10406 4.32142,-6.24095 9.39072,-12.36065 15.21936,-18.24868 5.83032,-5.8899 12.38715,-11.51429 19.61692,-16.7917 7.23606,-5.282 15.11441,-10.19883 23.57306,-14.62422 8.450864,-4.42149 17.441241,-8.32565 26.859093,-11.67336 3.841511,-1.36555 7.748201,-2.63593 11.713677,-3.8042 5.726227,-1.74398 11.626454,-3.28094 17.681893,-4.56328 4.746809,-1.00519 9.528837,-1.75089 14.335766,-2.419 31.5229438,-1.96723 63.890314,2.12724 94.151747,14.6094 h 7e-6 c 19.974952,9.08873 34.389968,24.25195 43.629247,40.45065 v 10e-6 c 4.65173,7.80846 8.56644,15.81498 11.90784,23.88303 1.32636,4.20532 2.54222,8.37096 3.48504,12.44253 1.191,5.14378 2.11044,10.18182 2.81376,15.05683 0.62472,3.99016 0.80908,7.63094 0.70404,10.9292 -0.20251,6.35914 -1.48798,11.5781 -2.89964,15.76946 -0.59483,2.17077 -1.23911,4.28423 -1.92336,6.3404 -11.1935,-1.48689 -22.386486,-2.97773 -33.578941,-4.47251 0.235547,-1.75217 0.437806,-3.49417 0.602458,-5.2251 0.194636,-6.87591 1.105776,-11.32455 0.138882,-12.65135 -4.408482,-14.84664 -9.494473,-28.8155 -16.771777,-40.63919 -7.162416,-10.92941 -15.117421,-20.48532 -24.23937,-23.62799 -30.890672,-13.38927 -67.6179,-14.08335 -102.955184,-7.8023 -34.72886,6.63165 -68.214778,20.01901 -92.985478,42.44266 -5.3046,5.3182 -10.02902,11.16691 -13.96736,17.41592 4.38315,2.88425 8.76941,5.76382 13.15877,8.63872 -2.33485,1.75418 -4.59013,3.66452 -6.7378,5.73362 -5.46382,5.16304 -10.46287,11.91151 -15.24685,19.56591 6.5e-4,-0.002 10e-4,-0.004 0.002,-0.006 z"
             id="path5933" />
        </g>
      </g>
    </clipPath>
    <linearGradient
       inkscape:collect="always"
       xlink:href="#radialGradient5910-3"
       id="linearGradient5902"
       x1="-11.098573"
       y1="76.08783"
       x2="57.136993"
       y2="8.5113087"
       gradientUnits="userSpaceOnUse" />
    <linearGradient
       inkscape:collect="always"
       xlink:href="#radialGradient5910"
       id="linearGradient5918"
       x1="115.30035"
       y1="38.194267"
       x2="53.058609"
       y2="5.3138037"
       gradientUnits="userSpaceOnUse" />
    <linearGradient
       inkscape:collect="always"
       xlink:href="#linearGradient5828"
       id="linearGradient5939"
       gradientUnits="userSpaceOnUse"
       x1="141.6"
       y1="460.75"
       x2="82.38"
       y2="471.73" />
    <radialGradient
       inkscape:collect="always"
       xlink:href="#radialGradient4034"
       id="radialGradient5941"
       gradientUnits="userSpaceOnUse"
       gradientTransform="matrix(2.0916,0.39594,-1.3654,7.213,627.09,-3497.4)"
       cx="126.49"
       cy="556.38"
       r="28.734" />
  </defs>
  <sodipodi:namedview
     id="base"
     pagecolor="#ffffff"
     bordercolor="#666666"
     borderopacity="1.0"
     inkscape:pageopacity="0.0"
     inkscape:pageshadow="2"
     inkscape:zoom="2"
     inkscape:cx="59.270603"
     inkscape:cy="104.76427"
     inkscape:document-units="px"
     inkscape:current-layer="layer4"
     showgrid="false"
     inkscape:window-width="1920"
     inkscape:window-height="1017"
     inkscape:window-x="-8"
     inkscape:window-y="-8"
     inkscape:window-maximized="1"
     inkscape:grid-bbox="true"
     inkscape:snap-to-guides="true"
     inkscape:snap-grids="true"
     inkscape:snap-others="true"
     inkscape:object-nodes="false"
     inkscape:snap-nodes="true"
     inkscape:snap-global="true" />
  <metadata
     id="metadata818">
    <rdf:RDF>
      <cc:Work
         rdf:about="">
        <dc:format>image/svg+xml</dc:format>
        <dc:type
           rdf:resource="http://purl.org/dc/dcmitype/StillImage" />
        <dc:title></dc:title>
      </cc:Work>
    </rdf:RDF>
  </metadata>
  <g
     inkscape:groupmode="layer"
     id="layer4"
     inkscape:label="Layer 4" />
  <g
     inkscape:label="Layer 1"
     inkscape:groupmode="layer"
     id="layer1">
    <g
       transform="matrix(0.20919051,0,0,0.20919051,55.657008,-135.1283)"
       inkscape:label="Layer 1"
       id="g1536">
      <path
         d="m 19.172,823.21 c -1.108,0 -2,0.892 -2,2 v 15.219 0.65625 193.88005 c 0,1.108 0.892,2 2,2 h 263.75 c 1.108,0 2,-0.892 2,-2 V 841.08525 840.429 825.21 c 0,-1.108 -0.892,-2 -2,-2 z"
         inkscape:connector-curvature="0"
         style="fill:url(#linearGradient1538);fill-rule:evenodd;filter:url(#filter4146)"
         id="path1516" />
      <path
         d="m 16,838.5 v 193.88 c 0,1.108 0.892,2 2,2 h 263.75 c 1.108,0 2,-0.892 2,-2 V 838.5 Z"
         inkscape:connector-curvature="0"
         style="fill:url(#linearGradient1540);fill-rule:evenodd"
         sodipodi:nodetypes="csssscc"
         id="path1518" />
      <path
         d="m 18,820.62 c -1.108,0 -2,0.892 -2,2 v 15.219 0.65625 H 283.75 V 837.839 822.62 c 0,-1.108 -0.892,-2 -2,-2 z"
         inkscape:connector-curvature="0"
         style="fill:url(#linearGradient1542);fill-rule:evenodd"
         sodipodi:nodetypes="ssccccsss"
         id="path1520" />
      <path
         d="m 268.71,823.74 h 9.0504 c 0.94551,0 1.7067,0.76119 1.7067,1.7067 v 8.2242 c 0,0.94551 -0.76119,1.7067 -1.7067,1.7067 H 268.71 c -0.94551,0 -1.7067,-0.76119 -1.7067,-1.7067 v -8.2242 c 0,-0.9455 0.76119,-1.7067 1.7067,-1.7067 z"
         inkscape:connector-curvature="0"
         style="fill:url(#linearGradient1544);fill-rule:evenodd"
         id="path1522" />
      <path
         inkscape:connector-curvature="0"
         style="fill:url(#linearGradient1546);fill-rule:evenodd"
         d="m 254.71,823.74 h 9.0504 c 0.94551,0 1.7067,0.76119 1.7067,1.7067 v 8.2242 c 0,0.94551 -0.76119,1.7067 -1.7067,1.7067 H 254.71 c -0.94551,0 -1.7067,-0.76119 -1.7067,-1.7067 v -8.2242 c 0,-0.9455 0.76119,-1.7067 1.7067,-1.7067 z"
         id="path1524" />
      <path
         d="m 240.71,823.74 h 9.0504 c 0.94551,0 1.7067,0.76119 1.7067,1.7067 v 8.2242 c 0,0.94551 -0.76119,1.7067 -1.7067,1.7067 H 240.71 c -0.94551,0 -1.7067,-0.76119 -1.7067,-1.7067 v -8.2242 c 0,-0.9455 0.76119,-1.7067 1.7067,-1.7067 z"
         inkscape:connector-curvature="0"
         style="fill:url(#linearGradient1548);fill-rule:evenodd"
         id="path1526" />
      <rect
         x="241.5"
         y="831.91998"
         width="7.6875"
         height="1.5"
         style="fill:#eeeeec;fill-rule:evenodd"
         id="rect1528" />
      <path
         d="m 256.28,828.36 h 6.1215 v 4.375 H 256.28 Z m -0.78299,-1.6875 h 7.6875 v 6.75 h -7.6875 z"
         inkscape:connector-curvature="0"
         style="fill:#eeeeec;fill-rule:evenodd"
         id="path1530" />
      <path
         d="m 270.34,826.11 -0.6875,0.71875 2.9375,2.9375 -2.9375,2.9375 0.6875,0.71875 2.9375,-2.9688 2.9688,2.9688 0.6875,-0.71875 -2.9375,-2.9375 2.9375,-2.9375 -0.6875,-0.71875 -2.9688,2.9688 z"
         inkscape:connector-curvature="0"
         style="color:#000000;text-indent:0;text-transform:none;fill:#eeeeec"
         id="path1532" />
      <path
         d="m 20,1030.3 c 86.583,0.047 173.17,0.047 259.75,0 V 842.46 H 20 Z"
         inkscape:connector-curvature="0"
         style="fill:#ffffff;fill-rule:evenodd"
         id="path1534" />
    </g>
    <path
       sodipodi:type="star"
       style="fill:#800080;fill-opacity:0"
       id="path5549"
       sodipodi:sides="5"
       sodipodi:cx="113.49064"
       sodipodi:cy="35.545788"
       sodipodi:r1="29.804571"
       sodipodi:r2="14.902286"
       sodipodi:arg1="-2.2131112"
       sodipodi:arg2="-1.5847927"
       inkscape:flatsided="false"
       inkscape:rounded="0"
       inkscape:randomized="0"
       d="m 95.636193,11.680935 17.645877,8.964027 17.38807,-9.454407 -3.07243,19.552261 L 141.9626,44.35828 122.41786,47.478214 113.90778,65.34744 104.90089,47.723404 85.276487,45.15173 99.254659,31.139542 Z"
       inkscape:transform-center-x="-0.12890374"
       inkscape:transform-center-y="2.7232098" />
    <rect
       style="fill:#800080;fill-opacity:0"
       id="rect5555"
       width="35.708889"
       height="25.632626"
       x="-3.5355339"
       y="-14.30524" />
    <rect
       style="fill:#929292;fill-opacity:1;stroke-width:1.25575602"
       id="rect5637-22-6-0"
       width="22.627419"
       height="7.2478442"
       x="62.225399"
       y="43.41235" />
    <rect
       style="fill:#929292;fill-opacity:1;stroke-width:1.25575602"
       id="rect5637-22-6-0-4"
       width="22.627419"
       height="7.2478442"
       x="89.650017"
       y="43.41235" />
    <rect
       style="fill:#929292;fill-opacity:1;stroke-width:1.25575602"
       id="rect5637-22-6-0-0"
       width="22.627419"
       height="7.2478442"
       x="62.30167"
       y="52.836971" />
    <rect
       style="fill:#929292;fill-opacity:1;stroke-width:1.25575602"
       id="rect5637-22-6-0-4-9"
       width="22.627419"
       height="7.2478442"
       x="89.726288"
       y="52.836971" />
    <rect
       style="fill:#929292;fill-opacity:1;stroke-width:1.25575602"
       id="rect5637-22-6-0-1"
       width="22.627419"
       height="7.2478442"
       x="62.124893"
       y="62.847382" />
    <rect
       style="fill:#929292;fill-opacity:1;stroke-width:1.25575602"
       id="rect5637-22-6-0-4-5"
       width="22.627419"
       height="7.2478442"
       x="89.549507"
       y="62.847382" />
  </g>
  <g
     inkscape:groupmode="layer"
     id="layer2"
     inkscape:label="Layer 2">
    <g
       id="g1484"
       inkscape:label="Layer 1"
       transform="matrix(0.20919051,0,0,0.20919051,65.907008,-113.1283)">
      <path
         id="path1464"
         style="fill:url(#linearGradient1486);fill-rule:evenodd;filter:url(#filter4146)"
         inkscape:connector-curvature="0"
         d="m 19.172,823.21 c -1.108,0 -2,0.892 -2,2 v 15.219 0.65625 193.88005 c 0,1.108 0.892,2 2,2 h 263.75 c 1.108,0 2,-0.892 2,-2 V 841.08525 840.429 825.21 c 0,-1.108 -0.892,-2 -2,-2 z" />
      <path
         id="path1466"
         sodipodi:nodetypes="csssscc"
         style="fill:url(#linearGradient1488);fill-rule:evenodd"
         inkscape:connector-curvature="0"
         d="m 16,838.5 v 193.88 c 0,1.108 0.892,2 2,2 h 263.75 c 1.108,0 2,-0.892 2,-2 V 838.5 Z" />
      <path
         id="path1468"
         sodipodi:nodetypes="ssccccsss"
         style="fill:url(#linearGradient1490);fill-rule:evenodd"
         inkscape:connector-curvature="0"
         d="m 18,820.62 c -1.108,0 -2,0.892 -2,2 v 15.219 0.65625 H 283.75 V 837.839 822.62 c 0,-1.108 -0.892,-2 -2,-2 z" />
      <path
         id="path1470"
         style="fill:url(#linearGradient1492);fill-rule:evenodd"
         inkscape:connector-curvature="0"
         d="m 268.71,823.74 h 9.0504 c 0.94551,0 1.7067,0.76119 1.7067,1.7067 v 8.2242 c 0,0.94551 -0.76119,1.7067 -1.7067,1.7067 H 268.71 c -0.94551,0 -1.7067,-0.76119 -1.7067,-1.7067 v -8.2242 c 0,-0.9455 0.76119,-1.7067 1.7067,-1.7067 z" />
      <path
         id="path1472"
         d="m 254.71,823.74 h 9.0504 c 0.94551,0 1.7067,0.76119 1.7067,1.7067 v 8.2242 c 0,0.94551 -0.76119,1.7067 -1.7067,1.7067 H 254.71 c -0.94551,0 -1.7067,-0.76119 -1.7067,-1.7067 v -8.2242 c 0,-0.9455 0.76119,-1.7067 1.7067,-1.7067 z"
         style="fill:url(#linearGradient1494);fill-rule:evenodd"
         inkscape:connector-curvature="0" />
      <path
         id="path1474"
         style="fill:url(#linearGradient1496);fill-rule:evenodd"
         inkscape:connector-curvature="0"
         d="m 240.71,823.74 h 9.0504 c 0.94551,0 1.7067,0.76119 1.7067,1.7067 v 8.2242 c 0,0.94551 -0.76119,1.7067 -1.7067,1.7067 H 240.71 c -0.94551,0 -1.7067,-0.76119 -1.7067,-1.7067 v -8.2242 c 0,-0.9455 0.76119,-1.7067 1.7067,-1.7067 z" />
      <rect
         id="rect1476"
         style="fill:#eeeeec;fill-rule:evenodd"
         height="1.5"
         width="7.6875"
         y="831.91998"
         x="241.5" />
      <path
         id="path1478"
         style="fill:#eeeeec;fill-rule:evenodd"
         inkscape:connector-curvature="0"
         d="m 256.28,828.36 h 6.1215 v 4.375 H 256.28 Z m -0.78299,-1.6875 h 7.6875 v 6.75 h -7.6875 z" />
      <path
         id="path1480"
         style="color:#000000;text-indent:0;text-transform:none;fill:#eeeeec"
         inkscape:connector-curvature="0"
         d="m 270.34,826.11 -0.6875,0.71875 2.9375,2.9375 -2.9375,2.9375 0.6875,0.71875 2.9375,-2.9688 2.9688,2.9688 0.6875,-0.71875 -2.9375,-2.9375 2.9375,-2.9375 -0.6875,-0.71875 -2.9688,2.9688 z" />
      <path
         id="path1482"
         style="fill:#ffffff;fill-rule:evenodd"
         inkscape:connector-curvature="0"
         d="m 20,1030.3 c 86.583,0.047 173.17,0.047 259.75,0 V 842.46 H 20 Z" />
    </g>
    <rect
       style="fill:#929292;fill-opacity:1;stroke-width:1.25575602"
       id="rect5637-22"
       width="22.627419"
       height="7.2478442"
       x="73.097176"
       y="65.332664" />
    <rect
       style="fill:#929292;fill-opacity:1;stroke-width:1.25575602"
       id="rect5637-22-5"
       width="22.627419"
       height="7.2478442"
       x="98.994949"
       y="65.509438" />
    <rect
       style="fill:#929292;fill-opacity:1;stroke-width:1.25575602"
       id="rect5637-22-9"
       width="22.627419"
       height="7.2478442"
       x="72.964592"
       y="73.961792" />
    <rect
       style="fill:#929292;fill-opacity:1;stroke-width:1.25575602"
       id="rect5637-22-5-3"
       width="22.627419"
       height="7.2478442"
       x="98.862366"
       y="74.138565" />
    <rect
       style="fill:#929292;fill-opacity:1;stroke-width:1.25575602"
       id="rect5637-22-6"
       width="22.627419"
       height="7.2478442"
       x="72.787804"
       y="82.44706" />
    <rect
       style="fill:#929292;fill-opacity:1;stroke-width:1.25575602"
       id="rect5637-22-5-6"
       width="22.627419"
       height="7.2478442"
       x="98.685577"
       y="82.623833" />
    <rect
       style="fill:#929292;fill-opacity:1;stroke-width:1.25575602"
       id="rect5637-22-60"
       width="22.627419"
       height="7.2478442"
       x="72.621429"
       y="91.982605" />
    <rect
       style="fill:#929292;fill-opacity:1;stroke-width:1.25575602"
       id="rect5637-22-5-35"
       width="22.627419"
       height="7.2478442"
       x="98.519196"
       y="92.159378" />
  </g>
  <g
     inkscape:groupmode="layer"
     id="layer3"
     inkscape:label="Layer 3">
    <g
       transform="matrix(0.27785889,0,0,0.27785889,-1.719497,-162.83134)"
       inkscape:label="Layer 1"
       id="layer1-3"
       sodipodi:insensitive="true">
      <path
         d="m 19.172,823.21 c -1.108,0 -2,0.892 -2,2 v 15.219 0.65625 193.88005 c 0,1.108 0.892,2 2,2 h 263.75 c 1.108,0 2,-0.892 2,-2 V 841.08525 840.429 825.21 c 0,-1.108 -0.892,-2 -2,-2 z"
         inkscape:connector-curvature="0"
         style="fill:url(#linearGradient1498);fill-rule:evenodd;filter:url(#filter4146)"
         id="path4129" />
      <path
         d="m 16,838.5 v 193.88 c 0,1.108 0.892,2 2,2 h 263.75 c 1.108,0 2,-0.892 2,-2 V 838.5 Z"
         inkscape:connector-curvature="0"
         style="fill:url(#linearGradient4191);fill-rule:evenodd"
         sodipodi:nodetypes="csssscc"
         id="rect3175" />
      <path
         d="m 18,820.62 c -1.108,0 -2,0.892 -2,2 v 15.219 0.65625 H 283.75 V 837.839 822.62 c 0,-1.108 -0.892,-2 -2,-2 z"
         inkscape:connector-curvature="0"
         style="fill:url(#linearGradient1500);fill-rule:evenodd"
         sodipodi:nodetypes="ssccccsss"
         id="rect3177" />
      <path
         d="m 268.71,823.74 h 9.0504 c 0.94551,0 1.7067,0.76119 1.7067,1.7067 v 8.2242 c 0,0.94551 -0.76119,1.7067 -1.7067,1.7067 H 268.71 c -0.94551,0 -1.7067,-0.76119 -1.7067,-1.7067 v -8.2242 c 0,-0.9455 0.76119,-1.7067 1.7067,-1.7067 z"
         inkscape:connector-curvature="0"
         style="fill:url(#linearGradient1502);fill-rule:evenodd"
         id="rect3197" />
      <path
         inkscape:connector-curvature="0"
         style="fill:url(#linearGradient4182);fill-rule:evenodd"
         d="m 254.71,823.74 h 9.0504 c 0.94551,0 1.7067,0.76119 1.7067,1.7067 v 8.2242 c 0,0.94551 -0.76119,1.7067 -1.7067,1.7067 H 254.71 c -0.94551,0 -1.7067,-0.76119 -1.7067,-1.7067 v -8.2242 c 0,-0.9455 0.76119,-1.7067 1.7067,-1.7067 z"
         id="path4029" />
      <path
         d="m 240.71,823.74 h 9.0504 c 0.94551,0 1.7067,0.76119 1.7067,1.7067 v 8.2242 c 0,0.94551 -0.76119,1.7067 -1.7067,1.7067 H 240.71 c -0.94551,0 -1.7067,-0.76119 -1.7067,-1.7067 v -8.2242 c 0,-0.9455 0.76119,-1.7067 1.7067,-1.7067 z"
         inkscape:connector-curvature="0"
         style="fill:url(#linearGradient4179);fill-rule:evenodd"
         id="path4033" />
      <rect
         x="241.5"
         y="831.91998"
         width="7.6875"
         height="1.5"
         style="fill:#eeeeec;fill-rule:evenodd"
         id="rect4064" />
      <path
         d="m 256.28,828.36 h 6.1215 v 4.375 H 256.28 Z m -0.78299,-1.6875 h 7.6875 v 6.75 h -7.6875 z"
         inkscape:connector-curvature="0"
         style="fill:#eeeeec;fill-rule:evenodd"
         id="rect4070" />
      <path
         d="m 270.34,826.11 -0.6875,0.71875 2.9375,2.9375 -2.9375,2.9375 0.6875,0.71875 2.9375,-2.9688 2.9688,2.9688 0.6875,-0.71875 -2.9375,-2.9375 2.9375,-2.9375 -0.6875,-0.71875 -2.9688,2.9688 z"
         inkscape:connector-curvature="0"
         style="color:#000000;text-indent:0;text-transform:none;fill:#eeeeec"
         id="path4085" />
      <path
         d="m 20,1030.3 c 86.583,0.047 173.17,0.047 259.75,0 V 842.46 H 20 Z"
         inkscape:connector-curvature="0"
         style="fill:#ffffff;fill-rule:evenodd"
         id="path4113" />
    </g>
    <path
       style="display:inline;fill:url(#linearGradient5902);fill-opacity:1;stroke:#000000;stroke-width:1px;stroke-linecap:butt;stroke-linejoin:miter;stroke-opacity:1"
       d="m 54.425986,7.8580677 c -3.953218,2.3306003 -5.452714,8.3369423 -9.5568,16.5452013 -3.991926,7.983938 -5.759194,9.152723 -7.462185,18.260322 -0.266773,1.426704 -0.814763,4.320227 -0.814763,4.320227 0,0 6.843904,-0.09043 8.693797,-0.09043 0,0 -23.620877,13.077502 -25.79187,17.122366 L 1.9895923,47.74338 9.4696699,47.566603 C 10.824376,45.661825 10.313055,2.6978001 52.428483,2.3151232"
       id="path5577"
       inkscape:connector-curvature="0"
       sodipodi:nodetypes="csscccccc"
       inkscape:label="arrow left side" />
    <path
       inkscape:label="arrow right side"
       sodipodi:nodetypes="ccccsssc"
       inkscape:connector-curvature="0"
       id="path5615"
       d="m 51.89593,2.3772027 c 19.265759,-2.4223534 61.91549,-0.862175 61.92775,5.7461007 l 0.0723,27.9313686 -22.94418,-0.0042 c 0,0 0.11024,-1.809994 0.229641,-4.484039 C 91.505741,24.302381 90.82716,20.488757 89.241849,17.777409 86.826442,13.646354 78.009051,7.0762967 74.140106,5.9058709 65.975886,3.4360468 56.580514,6.9043625 54.275749,7.9482169"
       style="display:inline;fill:url(#linearGradient5918);fill-opacity:1;stroke:#000000;stroke-width:1px;stroke-linecap:butt;stroke-linejoin:miter;stroke-opacity:1" />
    <rect
       style="fill:#929292;fill-opacity:1;stroke-width:1.37292242"
       id="rect5637"
       width="27.046835"
       height="7.2478442"
       x="5.6568542"
       y="73.55278" />
    <rect
       style="fill:#929292;fill-opacity:1;stroke-width:0.82315505"
       id="rect5637-7"
       width="9.7227192"
       height="7.2478442"
       x="34.649944"
       y="73.641159" />
    <rect
       style="fill:#929292;fill-opacity:1;stroke-width:1.37292242"
       id="rect5637-74"
       width="27.046835"
       height="7.2478442"
       x="46.816311"
       y="73.817947" />
    <rect
       style="fill:#929292;fill-opacity:1;stroke-width:1.37292242"
       id="rect5637-4"
       width="27.046835"
       height="7.2478442"
       x="5.494833"
       y="82.524193" />
    <rect
       style="fill:#929292;fill-opacity:1;stroke-width:0.82315505"
       id="rect5637-7-1"
       width="9.7227192"
       height="7.2478442"
       x="34.487923"
       y="82.612572" />
    <rect
       style="fill:#929292;fill-opacity:1;stroke-width:1.37292242"
       id="rect5637-74-6"
       width="27.046835"
       height="7.2478442"
       x="46.654289"
       y="82.78936" />
    <rect
       style="fill:#929292;fill-opacity:1;stroke-width:1.37292242"
       id="rect5637-6"
       width="27.046835"
       height="7.2478442"
       x="5.3180571"
       y="91.716583" />
    <rect
       style="fill:#929292;fill-opacity:1;stroke-width:0.82315505"
       id="rect5637-7-13"
       width="9.7227192"
       height="7.2478442"
       x="34.311146"
       y="91.804962" />
    <rect
       style="fill:#929292;fill-opacity:1;stroke-width:1.37292242"
       id="rect5637-74-5"
       width="27.046835"
       height="7.2478442"
       x="46.477512"
       y="91.98175" />
    <rect
       style="fill:#929292;fill-opacity:1;stroke-width:1.37292242"
       id="rect5637-72"
       width="27.046835"
       height="7.2478442"
       x="5.4948325"
       y="100.73219" />
    <rect
       style="fill:#929292;fill-opacity:1;stroke-width:0.82315505"
       id="rect5637-7-14"
       width="9.7227192"
       height="7.2478442"
       x="34.487923"
       y="100.82057" />
    <rect
       style="fill:#929292;fill-opacity:1;stroke-width:1.37292242"
       id="rect5637-74-63"
       width="27.046835"
       height="7.2478442"
       x="46.654293"
       y="100.99736" />
    <rect
       style="fill:#929292;fill-opacity:1;stroke-width:1.37292242"
       id="rect5637-2"
       width="27.046835"
       height="7.2478442"
       x="5.494833"
       y="109.57102" />
    <rect
       style="fill:#929292;fill-opacity:1;stroke-width:0.82315505"
       id="rect5637-7-16"
       width="9.7227192"
       height="7.2478442"
       x="34.487923"
       y="109.6594" />
    <rect
       style="fill:#929292;fill-opacity:1;stroke-width:1.37292242"
       id="rect5637-74-58"
       width="27.046835"
       height="7.2478442"
       x="46.654293"
       y="109.83618" />
    <rect
       style="fill:#929292;fill-opacity:1;stroke-width:1.16305804"
       id="rect5637-8"
       width="27.046835"
       height="5.2013922"
       x="5.5502877"
       y="118.23309" />
    <rect
       style="fill:#929292;fill-opacity:1;stroke-width:0.69732791"
       id="rect5637-7-9"
       width="9.7227192"
       height="5.2013922"
       x="34.543381"
       y="118.24104" />
    <rect
       style="fill:#929292;fill-opacity:1;stroke-width:1.16305804"
       id="rect5637-74-4"
       width="27.046835"
       height="5.2013922"
       x="46.709747"
       y="118.24661" />
  </g>
</svg>
